<svg xmlns="http://www.w3.org/2000/svg" viewBox="0 0 500 500"><defs><style>.a{fill:#2787f5;}.b{fill:#fff;}</style></defs><rect class="a" width="500" height="500"/><path class="b" d="M162.2,292.09H149.38v20.72H114.85V292.09H62.56V263.48l47.36-75h39.46v72H162.2ZM96.1,260.52h19.73V229Z"/><path class="b" d="M204.62,298a15.4,15.4,0,0,1-1.38,6.41,17.56,17.56,0,0,1-9,9,15.58,15.58,0,0,1-12.82,0,17.56,17.56,0,0,1-9-9,15.58,15.58,0,0,1,0-12.82,17.56,17.56,0,0,1,9-9,15.58,15.58,0,0,1,12.82,0,17.56,17.56,0,0,1,9,9A15.4,15.4,0,0,1,204.62,298Z"/><path class="b" d="M270.72,228a40.12,40.12,0,0,1,15.88,3.16,38.88,38.88,0,0,1,12.83,8.78A41.73,41.73,0,0,1,308,253.32a45.14,45.14,0,0,1,3.16,17.07,45.82,45.82,0,0,1-3.36,17.75,39.88,39.88,0,0,1-9.67,14,45.12,45.12,0,0,1-15.29,9.28,57,57,0,0,1-20,3.35,57.87,57.87,0,0,1-19.34-3.06,43.87,43.87,0,0,1-14.7-8.38A40,40,0,0,1,219.32,291a37.13,37.13,0,0,1-3.85-14.69l34.53-3a13,13,0,0,0,2.17,4.93,13.29,13.29,0,0,0,3.65,3.45,10.84,10.84,0,0,0,6,1.48,12.14,12.14,0,0,0,9-3.95,14.59,14.59,0,0,0,0-19.73,12.17,12.17,0,0,0-9-3.94,10.56,10.56,0,0,0-5.13,1.18,12.78,12.78,0,0,0-3.55,2.76,15.61,15.61,0,0,0-2.57,4H218.43l8.88-75h75v29.6H254.93l-2,13.81a19.26,19.26,0,0,1,4.74-2,39.85,39.85,0,0,1,5.62-1.38A41.12,41.12,0,0,1,270.72,228Z"/><path class="b" d="M433.5,250.65a77.05,77.05,0,0,1-4.34,26.64,62.26,62.26,0,0,1-11.84,20.23,51,51,0,0,1-17.56,12.82,54.32,54.32,0,0,1-43,0,51,51,0,0,1-17.56-12.82,62.08,62.08,0,0,1-11.84-20.23,83.9,83.9,0,0,1,0-53.27,62.19,62.19,0,0,1,11.84-20.23A51,51,0,0,1,356.74,191a54.32,54.32,0,0,1,43,0,51,51,0,0,1,17.56,12.82A62.37,62.37,0,0,1,429.16,224,77,77,0,0,1,433.5,250.65Zm-34.53,0a48.87,48.87,0,0,0-1.68-13.51,28.78,28.78,0,0,0-4.54-9.57,19,19,0,0,0-6.61-5.62,17.5,17.5,0,0,0-15.78,0,19,19,0,0,0-6.61,5.62,28.78,28.78,0,0,0-4.54,9.57,55.2,55.2,0,0,0,0,27,28.78,28.78,0,0,0,4.54,9.57,19,19,0,0,0,6.61,5.62,17.5,17.5,0,0,0,15.78,0,19,19,0,0,0,6.61-5.62,28.78,28.78,0,0,0,4.54-9.57A48.9,48.9,0,0,0,399,250.65Z"/></svg>